<svg width="650.834375px" height="107px" xmlns="http://www.w3.org/2000/svg" viewBox="-75.41718750000001 21.5 650.834375 107" style="background: none;" preserveAspectRatio="xMidYMid"><defs><filter id="editing-lego" x="-100%" y="-100%" width="300%" height="300%"><feFlood flood-color="#f7981e" result="f1"></feFlood><feFlood flood-color="#ee5a30" result="f2"></feFlood><feMorphology operator="dilate" radius="3" in="SourceAlpha"></feMorphology><feConvolveMatrix order="5,5" divisor="1" result="cm1" kernelMatrix="0 1 1 1 0  1 0 0 0 1  1 0 0 0 1  1 0 0 0 1  0 1 1 1 0"></feConvolveMatrix><feComposite operator="in" in="f1" in2="cm1" result="c1"></feComposite><feMorphology operator="dilate" radius="3"></feMorphology><feConvolveMatrix order="5,5" divisor="1" result="cm2" kernelMatrix="0 1 1 1 0  1 0 0 0 1  1 0 0 0 1  1 0 0 0 1  0 1 1 1 0"></feConvolveMatrix><feComposite operator="in" in="f2" in2="cm2" result="c2"></feComposite><feMerge><feMergeNode in="c2"></feMergeNode><feMergeNode in="c1"></feMergeNode><feMergeNode in="SourceGraphic"></feMergeNode></feMerge></filter></defs><g filter="url(#editing-lego)"><g transform="translate(18.419999450445175, 95.3499984741211)"><path d="M0.39-0.28L0.39-0.28L7.32-36.30L7.32-36.30Q13.80-36.85 17.98-36.85L17.98-36.85L17.98-36.85Q22.16-36.85 24.86-36.49L24.86-36.49L24.86-36.49Q27.55-36.13 29.37-35.20L29.37-35.20L29.37-35.20Q33-33.44 33-28.60L33-28.60L33-28.60Q33-25.80 30.58-23.43L30.58-23.43L30.58-23.43Q28.32-21.29 25.85-20.79L25.85-20.79L25.85-20.79Q28.49-20.35 30.36-18.37L30.36-18.37L30.36-18.37Q32.34-16.28 32.34-13.04L32.34-13.04L32.34-13.04Q32.34-6.76 27.66-3.11L27.66-3.11L27.66-3.11Q22.99 0.55 13.80 0.55L13.80 0.55L13.80 0.55Q7.48 0.55 0.39-0.28ZM15.35-17.71L12.60-3.46L12.60-3.46Q13.09-3.41 13.20-3.41L13.20-3.41L13.70-3.41L13.70-3.41Q18.21-3.41 20.13-6.38L20.13-6.38L20.13-6.38Q21.56-8.69 21.56-12.93L21.56-12.93L21.56-12.93Q21.56-15.18 20.10-16.39L20.10-16.39L20.10-16.39Q18.64-17.60 15.35-17.71L15.35-17.71ZM23.71-28.55L23.71-28.55L23.71-28.55Q23.71-33.11 19.30-33.11L19.30-33.11L18.81-33.11L18.81-33.11Q18.59-33.11 18.26-33.05L18.26-33.05L16.06-21.45L16.61-21.45L16.61-21.45Q23.71-21.61 23.71-28.55ZM58.25-9.29L58.25-9.29L58.25-9.29Q59.62-8.36 59.62-6.30L59.62-6.30L59.62-6.30Q59.62-4.24 58.58-2.92L58.58-2.92L58.58-2.92Q57.53-1.59 55.83-0.71L55.83-0.71L55.83-0.71Q52.31 1.10 48.51 1.10L48.51 1.10L48.51 1.10Q44.72 1.10 42.49 0.28L42.49 0.28L42.49 0.28Q40.26-0.55 38.78-2.09L38.78-2.09L38.78-2.09Q35.86-5.00 35.86-10.34L35.86-10.34L35.86-10.34Q35.86-18.64 40.37-23.71L40.37-23.71L40.37-23.71Q45.21-29.15 53.63-29.15L53.63-29.15L53.63-29.15Q58.85-29.15 61.44-26.95L61.44-26.95L61.44-26.95Q63.36-25.30 63.36-22.61L63.36-22.61L63.36-22.61Q63.36-12.93 46.64-12.93L46.64-12.93L46.64-12.93Q46.42-11.49 46.42-10.29L46.42-10.29L46.42-10.29Q46.42-7.75 47.55-6.79L47.55-6.79L47.55-6.79Q48.68-5.83 50.77-5.83L50.77-5.83L50.77-5.83Q52.86-5.83 55.08-6.79L55.08-6.79L55.08-6.79Q57.31-7.75 58.25-9.29ZM47.03-15.29L47.03-15.29L47.03-15.29Q50.93-15.29 53.19-17.71L53.19-17.71L53.19-17.71Q55.44-20.02 55.44-23.71L55.44-23.71L55.44-23.71Q55.44-24.97 54.97-25.66L54.97-25.66L54.97-25.66Q54.51-26.34 53.57-26.34L53.57-26.34L53.57-26.34Q52.64-26.34 51.84-25.99L51.84-25.99L51.84-25.99Q51.04-25.63 50.22-24.42L50.22-24.42L50.22-24.42Q48.18-21.67 47.03-15.29ZM88.50 1.10L88.50 1.10L88.50 1.10Q81.84 1.10 81.84-4.07L81.84-4.07L81.84-4.07Q81.90-5.50 82.34-7.92L82.34-7.92L83.33-12.98L83.33-12.98Q84.81-20.13 84.81-21.73L84.81-21.73L84.81-21.73Q84.81-24.91 82.94-24.91L82.94-24.91L82.94-24.91Q79.81-24.91 78.16-16.72L78.16-16.72L74.91 0L63.86 1.10L69.58-28.11L78.59-29.15L77.72-23.76L77.72-23.76Q80.30-29.15 88.22-29.15L88.22-29.15L88.22-29.15Q92.07-29.15 93.69-27.53L93.69-27.53L93.69-27.53Q95.31-25.91 95.31-22.27L95.31-22.27L95.31-22.27Q95.31-18.86 93.56-10.89L93.56-10.89L93.56-10.89Q92.73-7.32 92.73-5.97L92.73-5.97L92.73-5.97Q92.73-4.62 93.47-3.85L93.47-3.85L93.47-3.85Q94.22-3.08 95.31-2.97L95.31-2.97L95.31-2.97Q94.77-1.10 92.87 0L92.87 0L92.87 0Q90.97 1.10 88.50 1.10ZM126.72-22.88L126.72-22.88L126.72-22.88Q126.72-20.57 124.80-19.14L124.80-19.14L124.80-19.14Q122.87-17.71 119.73-17.71L119.73-17.71L119.73-17.71Q118.42-17.71 117.64-18.09L117.64-18.09L117.64-18.09Q118.25-19.52 118.44-21.31L118.44-21.31L118.44-21.31Q118.64-23.10 118.64-23.59L118.64-23.59L118.64-23.59Q118.64-25.91 117.04-25.91L117.04-25.91L117.04-25.91Q115.94-25.91 114.70-24.53L114.70-24.53L114.70-24.53Q113.47-23.16 112.42-21.01L112.42-21.01L112.42-21.01Q110.11-16.06 110.11-11.05L110.11-11.05L110.11-11.05Q110.11-8.30 111.16-7.07L111.16-7.07L111.16-7.07Q112.20-5.83 114.51-5.83L114.51-5.83L114.51-5.83Q117.70-5.83 120.23-8.47L120.23-8.47L120.23-8.47Q120.94-9.29 121.33-10.23L121.33-10.23L121.33-10.23Q123.42-9.13 123.42-6.11L123.42-6.11L123.42-6.11Q123.42-3.02 120.01-0.99L120.01-0.99L120.01-0.99Q116.49 1.10 110.88 1.10L110.88 1.10L110.88 1.10Q99.72 1.10 99.72-10.72L99.72-10.72L99.72-10.72Q99.72-19.36 104.61-24.31L104.61-24.31L104.61-24.31Q109.34-29.15 118.03-29.15L118.03-29.15L118.03-29.15Q126.72-29.15 126.72-22.88ZM155.87-6.11L155.87-6.11L155.87-6.11Q155.87-3.69 158.34-2.97L158.34-2.97L158.34-2.97Q157.74-0.94 155.38 0.17L155.38 0.17L155.38 0.17Q153.39 1.10 151.22 1.10L151.22 1.10L151.22 1.10Q149.05 1.10 147.92 0.52L147.92 0.52L147.92 0.52Q146.79-0.06 146.19-0.99L146.19-0.99L146.19-0.99Q145.20-2.42 145.20-5.12L145.20-5.12L145.20-5.12Q145.20-6.71 146.08-11.11L146.08-11.11L146.85-15.29L146.85-15.29Q147.78-20.07 147.78-21.84L147.78-21.84L147.78-21.84Q147.78-24.91 146.08-24.91L146.08-24.91L146.08-24.91Q143.94-24.91 142.56-21.78L142.56-21.78L142.56-21.78Q142.01-20.57 141.63-18.75L141.63-18.75L137.88 0L126.83 1.10L134.59-38.50L145.64-39.60L145.20-37.40L145.20-37.40Q143.66-28.93 142.34-26.07L142.34-26.07L142.34-26.07Q145.42-29.15 151.09-29.15L151.09-29.15L151.09-29.15Q157.08-29.15 158.18-25.19L158.18-25.19L158.18-25.19Q158.56-23.93 158.56-22.82L158.56-22.82L158.56-22.82Q158.56-21.73 158.48-20.87L158.48-20.87L158.48-20.87Q158.40-20.02 158.13-18.48L158.13-18.48L157.41-14.52L156.14-8.30L156.14-8.30Q155.87-7.04 155.87-6.11ZM202.40 1.10L202.40 1.10L202.40 1.10Q195.75 1.10 195.75-4.07L195.75-4.07L195.75-4.07Q195.75-6.33 196.71-10.70L196.71-10.70L196.71-10.70Q197.67-15.07 198-16.83L198-16.83L198-16.83Q198.77-20.84 198.77-22.11L198.77-22.11L198.77-22.11Q198.77-24.91 196.68-24.91L196.68-24.91L196.68-24.91Q195.31-24.91 193.99-23.02L193.99-23.02L193.99-23.02Q192.67-21.12 192.06-17.32L192.06-17.32L188.65 0L177.93 1.10L180.90-13.86L180.90-13.86Q181.39-16.34 181.83-19.14L181.83-19.14L181.83-19.14Q182.27-21.95 182.27-22.39L182.27-22.39L182.27-22.39Q182.27-24.91 180.40-24.91L180.40-24.91L180.40-24.91Q179.14-24.91 177.76-23.05L177.76-23.05L177.76-23.05Q176.39-21.18 175.62-17.32L175.62-17.32L172.26 0L161.43 1.10L167.20-28.05L176.17-29.15L175.23-23.59L175.23-23.59Q176.66-26.57 179.30-27.86L179.30-27.86L179.30-27.86Q181.94-29.15 186.06-29.15L186.06-29.15L186.06-29.15Q188.43-29.15 189.97-28.00L189.97-28.00L189.97-28.00Q191.51-26.84 192.00-24.97L192.00-24.97L192.00-24.97Q192.94-26.89 195.33-28.02L195.33-28.02L195.33-28.02Q197.73-29.15 200.67-29.15L200.67-29.15L200.67-29.15Q203.61-29.15 205.07-28.52L205.07-28.52L205.07-28.52Q206.53-27.89 207.41-26.84L207.41-26.84L207.41-26.84Q208.89-24.91 208.89-21.39L208.89-21.39L208.89-21.39Q208.89-17.93 207.41-10.72L207.41-10.72L207.41-10.72Q206.64-7.21 206.64-5.91L206.64-5.91L206.64-5.91Q206.64-4.62 207.38-3.85L207.38-3.85L207.38-3.85Q208.12-3.08 209.22-2.97L209.22-2.97L209.22-2.97Q208.67-1.10 206.77 0L206.77 0L206.77 0Q204.88 1.10 202.40 1.10ZM215.85-1.65L215.85-1.65L215.85-1.65Q214.56-3.08 213.98-5.33L213.98-5.33L213.98-5.33Q213.40-7.59 213.40-11.28L213.40-11.28L213.40-11.28Q213.40-14.96 214.67-18.32L214.67-18.32L214.67-18.32Q215.93-21.67 218.24-24.09L218.24-24.09L218.24-24.09Q222.97-29.15 230.78-29.15L230.78-29.15L230.78-29.15Q233.59-29.15 235.62-28.21L235.62-28.21L245.03-29.15L240.96-7.70L240.96-7.70Q240.79-7.04 240.79-5.83L240.79-5.83L240.79-5.83Q240.79-4.62 241.53-3.85L241.53-3.85L241.53-3.85Q242.28-3.08 243.38-2.97L243.38-2.97L243.38-2.97Q242.83-1.10 240.82 0L240.82 0L240.82 0Q238.81 1.10 236.56 1.10L236.56 1.10L236.56 1.10Q234.30 1.10 232.79 0.25L232.79 0.25L232.79 0.25Q231.28-0.60 230.84-2.04L230.84-2.04L230.84-2.04Q229.96-0.66 228.09 0.22L228.09 0.22L228.09 0.22Q226.22 1.10 223.71 1.10L223.71 1.10L223.71 1.10Q221.21 1.10 219.18 0.44L219.18 0.44L219.18 0.44Q217.14-0.22 215.85-1.65ZM227.45-23.98L227.45-23.98L227.45-23.98Q226.82-22.99 226.27-21.31L226.27-21.31L226.27-21.31Q225.72-19.64 224.81-15.15L224.81-15.15L224.81-15.15Q223.91-10.67 223.91-7.48L223.91-7.48L223.91-7.48Q223.91-4.29 224.40-3.35L224.40-3.35L224.40-3.35Q224.90-2.42 225.78-2.42L225.78-2.42L225.78-2.42Q227.54-2.42 228.83-4.10L228.83-4.10L228.83-4.10Q230.12-5.78 230.62-8.74L230.62-8.74L233.53-24.86L233.53-24.86Q232.38-25.85 231.03-25.85L231.03-25.85L231.03-25.85Q229.68-25.85 228.88-25.41L228.88-25.41L228.88-25.41Q228.09-24.97 227.45-23.98ZM265.21-15.46L265.21-15.46L265.21-15.46Q267.19-18.98 267.19-22.55L267.19-22.55L267.19-22.55Q267.19-24.91 265.49-24.91L265.49-24.91L265.49-24.91Q264.17-24.91 262.79-22.66L262.79-22.66L262.79-22.66Q261.36-20.41 260.92-17.49L260.92-17.49L258.06 0L246.68 1.10L252.28-28.05L261.36-29.15L260.37-23.59L260.37-23.59Q263.06-29.15 269.12-29.15L269.12-29.15L269.12-29.15Q272.31-29.15 274.04-27.50L274.04-27.50L274.04-27.50Q275.77-25.85 275.77-22.47L275.77-22.47L275.77-22.47Q275.77-19.09 273.54-16.94L273.54-16.94L273.54-16.94Q271.31-14.79 267.52-14.79L267.52-14.79L267.52-14.79Q265.87-14.79 265.21-15.46ZM290.84-26.07L290.84-26.07L290.84-26.07Q293.81-29.15 300.08-29.15L300.08-29.15L300.08-29.15Q303.55-29.15 305.44-27.31L305.44-27.31L305.44-27.31Q307.34-25.46 307.34-22.08L307.34-22.08L307.34-22.08Q307.34-18.70 305.44-16.31L305.44-16.31L305.44-16.31Q303.55-13.92 300.03-12.93L300.03-12.93L300.03-12.93Q300.30-11.82 300.69-10.67L300.69-10.67L301.46-8.47L301.46-8.47Q302.50-5.67 303.33-4.67L303.33-4.67L303.33-4.67Q304.15-3.69 305.25-3.35L305.25-3.35L305.25-3.35Q304.65-1.10 302.45 0.11L302.45 0.11L302.45 0.11Q300.69 1.10 298.27 1.10L298.27 1.10L298.27 1.10Q291.17 1.10 290.24-9.85L290.24-9.85L290.24-9.85Q290.07-11.38 290.07-12.93L290.07-12.93L290.07-12.93Q292.82-13.70 294.75-16.28L294.75-16.28L294.75-16.28Q296.67-18.86 296.67-21.89L296.67-21.89L296.67-21.89Q296.67-24.91 294.53-24.91L294.53-24.91L294.53-24.91Q292.99-24.91 291.78-23.21L291.78-23.21L291.78-23.21Q290.57-21.50 290.02-18.59L290.02-18.59L286.39 0L275.28 1.10L282.98-38.50L294.03-39.60L292.77-33.05L292.77-33.05Q291.94-28.43 290.84-26.07ZM326.87 0L320.82 0L327.42-36.30L339.24-36.30L347.82-11.33L352.39-36.30L358.49-36.24L351.78 0L339.19 0L331.27-24.04L326.87 0ZM382.14-9.29L382.14-9.29L382.14-9.29Q383.52-8.36 383.52-6.30L383.52-6.30L383.52-6.30Q383.52-4.24 382.47-2.92L382.47-2.92L382.47-2.92Q381.43-1.59 379.72-0.71L379.72-0.71L379.72-0.71Q376.20 1.10 372.41 1.10L372.41 1.10L372.41 1.10Q368.61 1.10 366.38 0.28L366.38 0.28L366.38 0.28Q364.16-0.55 362.67-2.09L362.67-2.09L362.67-2.09Q359.76-5.00 359.76-10.34L359.76-10.34L359.76-10.34Q359.76-18.64 364.27-23.71L364.27-23.71L364.27-23.71Q369.11-29.15 377.52-29.15L377.52-29.15L377.52-29.15Q382.75-29.15 385.33-26.95L385.33-26.95L385.33-26.95Q387.26-25.30 387.26-22.61L387.26-22.61L387.26-22.61Q387.26-12.93 370.54-12.93L370.54-12.93L370.54-12.93Q370.32-11.49 370.32-10.29L370.32-10.29L370.32-10.29Q370.32-7.75 371.44-6.79L371.44-6.79L371.44-6.79Q372.57-5.83 374.66-5.83L374.66-5.83L374.66-5.83Q376.75-5.83 378.98-6.79L378.98-6.79L378.98-6.79Q381.21-7.75 382.14-9.29ZM370.92-15.29L370.92-15.29L370.92-15.29Q374.83-15.29 377.08-17.71L377.08-17.71L377.08-17.71Q379.34-20.02 379.34-23.71L379.34-23.71L379.34-23.71Q379.34-24.97 378.87-25.66L378.87-25.66L378.87-25.66Q378.40-26.34 377.47-26.34L377.47-26.34L377.47-26.34Q376.53-26.34 375.73-25.99L375.73-25.99L375.73-25.99Q374.94-25.63 374.11-24.42L374.11-24.42L374.11-24.42Q372.08-21.67 370.92-15.29ZM430.16-9.19L430.16-9.19Q426.53-4.18 423.03-1.54L423.03-1.54L423.03-1.54Q419.54 1.10 415.94 1.10L415.94 1.10L415.94 1.10Q412.34 1.10 411.07 0.39L411.07 0.39L411.07-11.71L411.07-11.71Q407.94-3.35 402.33-0.11L402.33-0.11L402.33-0.11Q400.29 1.10 398.37 1.10L398.37 1.10L398.37 1.10Q394.68 1.10 393.09 0.39L393.09 0.39L393.09 0.39Q392.70-12.21 392.37-15.70L392.37-15.70L392.37-15.70Q392.04-19.20 391.77-21.34L391.77-21.34L391.77-21.34Q391.22-25.63 389.35-27.39L389.35-27.39L389.35-27.39Q391.71-29.15 395.01-29.15L395.01-29.15L395.01-29.15Q401.39-29.15 402.27-21.23L402.27-21.23L402.27-21.23Q402.49-19.36 402.49-17.38L402.49-17.38L402.49-17.38Q402.49-14.41 401.83-4.07L401.83-4.07L401.83-4.07Q403.15-4.67 404.55-6.85L404.55-6.85L404.55-6.85Q405.96-9.02 407.11-11.99L407.11-11.99L407.11-11.99Q409.70-18.86 409.70-24.80L409.70-24.80L409.70-24.80Q409.70-25.74 409.45-26.73L409.45-26.73L409.45-26.73Q409.20-27.72 408.93-28.00L408.93-28.00L408.93-28.00Q410.85-29.15 413.79-29.15L413.79-29.15L413.79-29.15Q416.74-29.15 418.14-27.14L418.14-27.14L418.14-27.14Q419.54-25.14 419.93-21.45L419.93-21.45L419.93-21.45Q420.37-16.77 420.37-13.97L420.37-13.97L420.37-13.97Q420.37-10.06 419.98-4.29L419.98-4.29L419.98-4.29Q422.73-6.27 424.99-12.76L424.99-12.76L424.99-12.76Q427.24-19.25 427.24-23.87L427.24-23.87L427.24-23.87Q427.24-25.91 426.91-27.11L426.91-27.11L426.91-27.11Q428.73-29.15 431.86-29.15L431.86-29.15L431.86-29.15Q433.79-29.15 435.19-28.11L435.19-28.11L435.19-28.11Q436.59-27.06 436.59-25.11L436.59-25.11L436.59-25.11Q436.59-23.16 436.01-21.07L436.01-21.07L436.01-21.07Q435.44-18.98 434.50-16.83L434.50-16.83L434.50-16.83Q432.69-12.54 430.16-9.19L430.16-9.19ZM454.52-19.30L454.52-19.30L454.52-19.30Q455.29-21.34 455.29-23.10L455.29-23.10L455.29-23.10Q455.29-26.34 452.65-26.34L452.65-26.34L452.65-26.34Q451.28-26.34 450.15-25.11L450.15-25.11L450.15-25.11Q449.02-23.87 449.02-22.33L449.02-22.33L449.02-22.33Q449.02-21.23 449.90-20.35L449.90-20.35L449.90-20.35Q451.17-19.14 454.41-17.16L454.41-17.16L454.41-17.16Q457.66-15.18 458.89-13.56L458.89-13.56L458.89-13.56Q460.13-11.94 460.13-9.71L460.13-9.71L460.13-9.71Q460.13-7.48 459.06-5.45L459.06-5.45L459.06-5.45Q457.99-3.41 456.06-1.98L456.06-1.98L456.06-1.98Q451.94 1.10 445.34 1.10L445.34 1.10L445.34 1.10Q441.76 1.10 439.01-0.77L439.01-0.77L439.01-0.77Q436.26-2.58 436.26-4.73L436.26-4.73L436.26-4.73Q436.26-6.88 437.83-8.14L437.83-8.14L437.83-8.14Q439.40-9.40 441.71-9.40L441.71-9.40L441.71-9.40Q444.02-9.40 445.45-8.53L445.45-8.53L445.45-8.53Q444.73-6.71 444.73-5.50L444.73-5.50L444.73-5.50Q444.73-1.87 447.81-1.87L447.81-1.87L447.81-1.87Q449.13-1.87 450.01-2.69L450.01-2.69L450.01-2.69Q450.89-3.52 450.89-4.95L450.89-4.95L450.89-4.95Q450.89-7.75 446.16-10.72L446.16-10.72L446.16-10.72Q442.31-13.26 441.43-14.24L441.43-14.24L441.43-14.24Q439.95-16.00 439.95-18.21L439.95-18.21L439.95-18.21Q439.95-20.41 440.99-22.50L440.99-22.50L440.99-22.50Q442.04-24.59 443.96-26.07L443.96-26.07L443.96-26.07Q447.98-29.15 454.96-29.15L454.96-29.15L454.96-29.15Q458.54-29.15 460.65-27.72L460.65-27.72L460.65-27.72Q462.77-26.29 462.77-23.87L462.77-23.87L462.77-23.87Q462.77-21.45 461.31-20.07L461.31-20.07L461.31-20.07Q459.86-18.70 457.22-18.70L457.22-18.70L457.22-18.70Q455.40-18.70 454.52-19.30Z" fill="#ffffff"></path></g></g><style>text {
  font-size: 64px;
  font-family: Arial Black;
  dominant-baseline: central;
  text-anchor: middle;
}</style></svg>